<svg xmlns="http://www.w3.org/2000/svg" width="40" height="40" viewBox="1.585 1.412 37.109 37.113"><path paint-order="stroke fill markers" fill="#FF3946" fill-rule="evenodd" d="M38.32 16.234a18.497 18.497 0 0 0-5.057-9.382 18.45 18.45 0 0 0-2.744-2.266 18.457 18.457 0 0 0-3.154-1.717 18.481 18.481 0 0 0-3.487-1.076 18.552 18.552 0 0 0-7.474 0c-1.19.242-2.366.605-3.485 1.076a18.438 18.438 0 0 0-3.152 1.717 18.484 18.484 0 0 0-2.75 2.266 18.491 18.491 0 0 0-3.97 5.894 18.362 18.362 0 0 0-1.085 3.488 18.825 18.825 0 0 0-.377 3.735c0 1.257.13 2.517.377 3.734a18.683 18.683 0 0 0 2.793 6.647 19.224 19.224 0 0 0 2.262 2.74 18.433 18.433 0 0 0 2.75 2.261c.99.672 2.05 1.25 3.152 1.717 1.12.47 2.295.834 3.485 1.076 1.224.256 2.48.381 3.738.381 1.256 0 2.514-.125 3.736-.38a18.537 18.537 0 0 0 3.487-1.077 18.472 18.472 0 0 0 3.154-1.717c.982-.66 1.902-1.42 2.744-2.262a18.73 18.73 0 0 0 2.262-2.74 18.703 18.703 0 0 0 1.713-3.158 18.47 18.47 0 0 0 1.457-7.223 18.53 18.53 0 0 0-.375-3.734zm-2.336 3.574c-.233-.046-5.594-1.2-11.037-.517a52.98 52.98 0 0 0-1.395-3.115c6.256-2.555 8.795-6.23 8.828-6.274a15.796 15.796 0 0 1 3.604 9.906zm-5.375-11.73c-.041.062-2.299 3.496-8.28 5.736-2.706-4.976-5.683-8.932-5.921-9.244a15.912 15.912 0 0 1 3.734-.447c4.012 0 7.674 1.494 10.467 3.955zM16.345 4.582v.004l-.049.008s.034-.004.05-.012zm-2.963 1.056c.205.282 3.14 4.256 5.881 9.13-7.607 2.023-14.21 1.94-14.63 1.935a15.88 15.88 0 0 1 8.75-11.065zm-9.088 14.33c0-.17.008-.334.012-.5.281.005 8.113.182 16.27-2.257.455.888.892 1.79 1.287 2.695-.21.054-.416.12-.627.186C12.685 22.853 8.35 30.55 8.35 30.55l.004.007a15.805 15.805 0 0 1-4.06-10.59zm15.848 15.85a15.802 15.802 0 0 1-10.096-3.633c.207.17.356.278.356.278s3.037-6.625 12.435-9.903c.037-.011.07-.025.104-.029 2.232 5.791 3.152 10.645 3.385 12.031a15.807 15.807 0 0 1-6.184 1.256zm8.854-2.709c-.16-.953-1.008-5.603-3.084-11.316 5.115-.817 9.546.586 9.877.693a15.817 15.817 0 0 1-6.793 10.623z"/></svg>