
<svg xmlns="http://www.w3.org/2000/svg" width="40" height="33" viewBox="1.869 1.013 36.977 30.051"><path paint-order="stroke fill markers" fill="#FF3946" fill-rule="evenodd" d="M38.845 4.572a15.116 15.116 0 0 1-4.355 1.193 7.604 7.604 0 0 0 3.336-4.199 15.202 15.202 0 0 1-4.817 1.846 7.57 7.57 0 0 0-5.539-2.399 7.586 7.586 0 0 0-7.388 9.317C13.776 10.015 8.188 6.994 4.445 2.4a7.595 7.595 0 0 0 2.348 10.133 7.566 7.566 0 0 1-3.438-.953v.1c0 3.671 2.616 6.74 6.088 7.437a7.703 7.703 0 0 1-2.002.264c-.487 0-.962-.045-1.424-.137a7.584 7.584 0 0 0 7.082 5.271 15.21 15.21 0 0 1-9.418 3.248c-.615 0-1.218-.037-1.812-.107a21.5 21.5 0 0 0 11.63 3.408c13.955 0 21.586-11.56 21.586-21.586 0-.326-.007-.656-.025-.982a15.378 15.378 0 0 0 3.785-3.924z"/></svg>